# xmcd
#
# Track frame offsets:
#	150
#	19192
#	34872
#	48370
#	62170
#	76617
#	90925
#	104604
#	121817
#	141837
#	156537
#	171867
#	190600
#	207784
#	223132
#
# Disc length: 3161
#
# Revision: 1
# Processed by: cddbd v1.5.1PL0 Copyright (c) Steve Scherf et al.
# Submitted via: audiograbber 1.83.01
# Normalized: r0:TDELIM( - )
#
DISCID=c90c570f
DTITLE=Various Artist - SC7209
DYEAR=1900
DGENRE=Karaoke Country
TTITLE0=Trisha Yearwood - She's In Love With The Boy
TTITLE1=Jim Stafford - Spiders and Snakes
TTITLE2=Faith Hill - Wild One
TTITLE3=LeAnn Rimes - Blue
TTITLE4=Pam Tillis - Mi Vida Loca (My Crazy Life)
TTITLE5=Travis Tritt - T R O U B L E
TTITLE6=John Michael Montgomery - Be My Baby Tonight
TTITLE7=Reba McEntire - Why Haven't I Heard From You
TTITLE8=Shania Twain - Any Man Of Mine
TTITLE9=Collin Raye - That's My Story
TTITLE10=Reba McEntire - Take It Back
TTITLE11=Oak Ridge Boys, The - Elvira
TTITLE12=Kenny Rogers - Gambler, The
TTITLE13=Tim McGraw - I LIke It, I Love It
TTITLE14=Lorrie Morgan - Except For Monday
EXTD=
EXTT0=
EXTT1=
EXTT2=
EXTT3=
EXTT4=
EXTT5=
EXTT6=
EXTT7=
EXTT8=
EXTT9=
EXTT10=
EXTT11=
EXTT12=
EXTT13=
EXTT14=
PLAYORDER=
